<svg xmlns="http://www.w3.org/2000/svg" xmlns:xlink="http://www.w3.org/1999/xlink" xmlns:inkscape="http://www.inkscape.org/namespaces/inkscape" version="1.1" width="582.76156" height="396.32838" viewBox="0 0 582.76156 396.32838">
<defs>
<clipPath id="clip_1">
<path d="M0 0H583V397H0Z"/>
</clipPath>
<clipPath id="clip_2">
<path d="M0 0H583V397H0Z"/>
</clipPath>
<clipPath id="clip_3">
<path d="M0 0H583V397H0Z"/>
</clipPath>
<clipPath id="clip_4">
<path d="M0 0H583V397H0Z"/>
</clipPath>
</defs>
<g>
<g clip-path="url(#clip_1)">
<path d="M321.02 194.129C317.359 220.188 292.934 240.492 258.867 240.414 247.531 240.391 234.781 238.266 227.703 234.953 229.613 223.867 230.617 218.461 233.25 203.219L234.543 203.223C236.406 205.879 239.004 207.777 242.102 209.238 246.762 211.16 253.059 212.266 260.281 212.281 273.199 212.309 284.512 205.512 286.27 193.004 287.332 185.434 284.059 179.121 276.77 172.387 270.879 166.938 265.59 162.02 260.605 156.797 249.988 145.816 243.492 133.473 245.957 115.945 249.449 91.102 270.668 68.445 307.871 68.527 316.125 68.543 325.602 69.762 331.055 71.598 329.051 82.66 328.051 88.328 325.664 102.965L324.363 102.961C322.895 100.941 319.906 99.285 317.207 98.223 314.32 97.195 310.629 96.578 306.391 96.57 292.633 96.539 281.699 103.711 280.074 115.281 279.094 122.258 281.328 127.039 285.605 132.094 289.777 137.105 296.289 142.52 304.328 150.586 316.512 162.828 323.707 175.027 321.055 193.91ZM321.02 194.129"/>
</g>
<g clip-path="url(#clip_2)">
<path d="M425.598 121.074C423.887 133.23 416.34 140.473 409.773 143.855 405.07 146.477 398.852 148.156 392.734 148.145 390.465 148.141 388.109 148.125 386.438 147.906L393.656 96.543C395.508 96.344 398.645 96.09 402.336 96.098 418.656 96.133 427.809 105.316 425.629 120.859L425.598 121.074M353.184 163.727C344.344 226.617 343.094 235.672 340.234 236.953L340.051 238.246C343.004 238.223 349.797 238.207 358.43 238.223 365.063 238.238 373.953 238.293 376.293 238.328L376.477 237.035C374.16 235.742 375.359 226.688 381.902 180.184L383.129 171.434C385.129 171.438 387.371 171.449 389.023 171.453 402.762 196.578 414.34 218.676 424.344 237.57 426.477 238.25 429.246 238.41 431.313 238.418 436.168 238.426 439.156 238.402 445.219 238.414 452 238.43 458.277 238.477 463.898 238.488L464.07 237.227C462.039 235.852 456.52 227.211 452.25 220.047 425.992 175.094 423 169.773 420.453 165.563L420.523 165.047C424.418 163.77 429.785 160.813 434.352 157.535 442.887 151.883 455.199 139.012 458.023 118.906 462.07 90.145 445.438 77.566 432.512 73.391 423.344 70.383 412.789 69.094 400.207 69.066 394.559 69.055 385.004 69.289 379.734 69.484 373.574 69.656 367.555 69.957 363.641 70.215L363.469 71.445C366.035 72.32 364.777 81.289 356.531 139.918ZM353.184 163.727"/>
</g>
<g clip-path="url(#clip_3)">
<path d="M563.465 194.66C559.801 220.723 535.375 241.027 501.309 240.949 489.973 240.926 477.223 238.793 470.145 235.484 472.055 224.402 473.059 218.996 475.691 203.754L476.988 203.758C478.848 206.414 481.445 208.313 484.543 209.77 489.207 211.695 495.5 212.797 502.723 212.809 515.641 212.84 526.953 206.047 528.711 193.539 529.777 185.965 526.5 179.656 519.211 172.914 513.32 167.473 508.031 162.555 503.047 157.324 492.43 146.348 485.934 134.004 488.398 116.473 491.891 91.633 513.109 68.977 550.313 69.063 558.566 69.078 568.043 70.297 573.5 72.129 571.492 83.191 570.492 88.859 568.109 103.5L566.805 103.496C565.336 101.477 562.352 99.82 559.648 98.758 556.762 97.727 553.07 97.109 548.832 97.102 535.074 97.07 524.145 104.246 522.516 115.813 521.535 122.793 523.77 127.574 528.047 132.625 532.219 137.641 538.73 143.051 546.773 151.121 558.953 163.359 566.148 175.559 563.496 194.445ZM563.465 194.66"/>
</g>
<g clip-path="url(#clip_4)">
<path d="M263.867 264.41C237.156 266.094 201.41 264.984 188.105 314.207L187.984 314.23C187.984 314.23 222.238 53.453 226.48 20.168L226.297 16.277C225.855 11.254 224.313-.5 219.641 .016 213.703 .68 209.438 6.969 203.941 24.57L185.242 107.637C185.242 107.637 173.703 160.441 172.598 165.395 155.762 241.203 142.91 255.609 142.91 255.609 142.91 255.609 143.449 173.02 140.906 149.5L140.723 147.93C140.277 142.906 138.738 131.145 134.063 131.668 128.125 132.328 125.707 140.469 120.328 156.109 75.621 286.02 9.84 292.504 0 292.738 78.379 294.824 124.48 189.969 128.715 182.359 128.715 182.359 130.262 252.859 124.766 294.117 123.82 301.199 123.535 305.031 123.695 306.613 121.695 326.992 124.895 334.723 130.5 335.656 141.211 337.441 143.48 323.832 147.066 317.516L146.746 317.184C149.949 311.332 153.496 300.773 158.305 282.012 158.668 281.902 160.336 275.152 160.68 275.102 163.887 261.156 168.371 244.508 170.508 236.98L202.137 85.902C201.918 85.234 201.977 85.375 202.156 85.816L202.137 85.902C201.039 110.555 163.395 338.199 162.199 349.711 162.199 349.727 162.195 349.738 162.195 349.754L162.168 349.719C159.48 377.262 158.723 390.191 167.301 395.332 174.051 399.379 181.027 390.578 186.082 378.152L185.973 378.023C188.277 373.574 190.332 367.539 192.051 359.664 202.344 335.168 197.633 293.895 284.391 287.148 379.25 279.773 582.762 264.41 582.762 264.41ZM263.867 264.41"/>
</g>
</g>
</svg>
